HIERARCHY
ROOT root
{
	OFFSET	0	13.1	24.9
	CHANNELS 6  Xposition Yposition Zposition Xrotation Yrotation Zrotation
	JOINT spine_1
	{
		OFFSET	0	9.99999	0
		CHANNELS 3  Xrotation Yrotation Zrotation
		JOINT spine_2
		{
			OFFSET	0	112	-10
			CHANNELS 3  Xrotation Yrotation Zrotation
			JOINT spine_3
			{
				OFFSET	0	206.5	19.3
				CHANNELS 3  Xrotation Yrotation Zrotation
				JOINT spine_4
				{
					OFFSET	0	110.4	14.6
					CHANNELS 3  Xrotation Yrotation Zrotation
					JOINT neck_1
					{
						OFFSET	0	71.8	-50.3
						CHANNELS 3  Xrotation Yrotation Zrotation
						JOINT neck_2
						{
							OFFSET	0	86.2	-25.8
							CHANNELS 3  Xrotation Yrotation Zrotation
							JOINT head_ee
							{
								OFFSET	0	179.8	-8.7
								CHANNELS 3  Xrotation Yrotation Zrotation
								End Site
								{
									OFFSET	1	0	0
								}
							}
						}
					}
					JOINT left_clavicle
					{
						OFFSET	-43.2	22.4	-70.8
						CHANNELS 3  Xrotation Yrotation Zrotation
						JOINT left_shoulder
						{
							OFFSET	-93.9	-5.79999	48.7
							CHANNELS 3  Xrotation Yrotation Zrotation
							JOINT left_elbow
							{
								OFFSET	-291.4	-30.8	15.2
								CHANNELS 3  Xrotation Yrotation Zrotation
								JOINT left_lowarm_twist
								{
									OFFSET	-110.7	-3.89999	13.6
									CHANNELS 3  Xrotation Yrotation Zrotation
									JOINT left_hand
									{
										OFFSET	-110.7	-3.89999	13.6
										CHANNELS 3  Xrotation Yrotation Zrotation
										JOINT left_ee
										{
											OFFSET	-80.8	-5.10001	12.1
											CHANNELS 3  Xrotation Yrotation Zrotation
											End Site
											{
												OFFSET	1	0	0
											}
										}
									}
								}
							}
						}
					}
					JOINT right_clavicle
					{
						OFFSET	43.2	22.4	-70.8
						CHANNELS 3  Xrotation Yrotation Zrotation
						JOINT right_shoulder
						{
							OFFSET	93.9	-5.79999	48.7
							CHANNELS 3  Xrotation Yrotation Zrotation
							JOINT right_elbow
							{
								OFFSET	291.4	-30.8	15.2
								CHANNELS 3  Xrotation Yrotation Zrotation
								JOINT right_lowarm_twist
								{
									OFFSET	110.7	-3.89999	13.6
									CHANNELS 3  Xrotation Yrotation Zrotation
									JOINT right_hand
									{
										OFFSET	110.7	-3.89999	13.6
										CHANNELS 3  Xrotation Yrotation Zrotation
										JOINT right_ee
										{
											OFFSET	80.8	-5.10001	12.1
											CHANNELS 3  Xrotation Yrotation Zrotation
											End Site
											{
												OFFSET	1	0	0
											}
										}
									}
								}
							}
						}
					}
				}
			}
		}
	}
	JOINT left_hip
	{
		OFFSET	-82.8	-127.5	0.300001
		CHANNELS 3  Xrotation Yrotation Zrotation
		JOINT left_knee
		{
			OFFSET	-28.2	-396.7	2.2
			CHANNELS 3  Xrotation Yrotation Zrotation
			JOINT left_ankle
			{
				OFFSET	-11.7	-411.3	35.4
				CHANNELS 3  Xrotation Yrotation Zrotation
				JOINT left_toes
				{
					OFFSET	0	-60	-88.6
					CHANNELS 3  Xrotation Yrotation Zrotation
					JOINT left_foot_ee
					{
						OFFSET	-22.5	-16.5	-42.2
						CHANNELS 3  Xrotation Yrotation Zrotation
						End Site
						{
							OFFSET	1	0	0
						}
					}
				}
			}
		}
	}
	JOINT right_hip
	{
		OFFSET	82.8	-127.5	0.300001
		CHANNELS 3  Xrotation Yrotation Zrotation
		JOINT right_knee
		{
			OFFSET	28.2	-396.7	2.2
			CHANNELS 3  Xrotation Yrotation Zrotation
			JOINT right_ankle
			{
				OFFSET	11.7	-411.3	35.4
				CHANNELS 3  Xrotation Yrotation Zrotation
				JOINT right_toes
				{
					OFFSET	0	-60	-88.6
					CHANNELS 3  Xrotation Yrotation Zrotation
					JOINT right_foot_ee
					{
						OFFSET	22.5	-16.5	-42.2
						CHANNELS 3  Xrotation Yrotation Zrotation
						End Site
						{
							OFFSET	1	0	0
						}
					}
				}
			}
		}
	}
}
MOTION
Frames: 10
Frame Time: 0.02
3523.0589948 743.962 -1517.77910616 10.5727957221 65.216526515 -16.4938081125 -0.567077 1.42597 4.89623 -0.554432 1.11192 4.97677 -0.447245 0.00278553 5.09917 -0.482605 0.807033 5.03506 -14.3992 11.5239 -12.665 -14.6755 29.5993 -8.23126 -0.0 0.0 -0.0 -4.23777 24.958 -2.74948 -15.8355 -7.10253 68.1457 1.21233 -30.9858 0.336058 -55.8917 -4.77671 4.95502 -1.71647 31.1848 3.06697 -0.0 0.0 -0.0 14.1762 21.3894 -28.9011 0.038388 41.6749 -56.5739 0.832083 22.4008 -0.164766 3.58384 -0.112413 0.443884 1.03772 -20.0616 -14.4002 0.0 0.0 0.0 25.3717 41.3109 -18.9546 -42.295 -0.619195 6.31654 8.69626 5.32087 -1.24289 7.0279 -0.0 -0.0 -0.0 0.0 -0.0 -4.44614 18.0032 9.39512 -12.5725 -0.310185 -1.90063 13.5354 17.3828 2.09553 20.4333 -0.0 -0.0 0.0 0.0 0.0 
3524.75776654 743.962 -1519.72823291 9.76779118909 63.0405619874 -15.5992999882 -0.567077 1.42597 4.89623 -0.554432 1.11192 4.97677 -0.447245 0.00278553 5.09917 -0.482605 0.807033 5.03506 -14.3992 11.5239 -12.665 -14.6755 29.5993 -8.23126 -0.0 0.0 -0.0 -4.23777 24.958 -2.74948 -15.8355 -7.10253 68.1457 1.21233 -30.9858 0.336058 -55.8917 -4.77671 4.95502 -1.71647 31.1848 3.06697 -0.0 0.0 -0.0 14.1762 21.3894 -28.9011 0.038388 41.6749 -56.5739 0.832083 22.4008 -0.164766 3.58384 -0.112413 0.443884 1.03772 -20.0616 -14.4002 0.0 0.0 0.0 25.3717 41.3109 -18.9546 -42.295 -0.619195 6.31654 8.69626 5.32087 -1.24289 7.0279 -0.0 -0.0 -0.0 0.0 -0.0 -4.44614 18.0032 9.39512 -12.5725 -0.310185 -1.90063 13.5354 17.3828 2.09553 20.4333 -0.0 -0.0 0.0 0.0 0.0 
3525.79379807 743.962 -1520.84584199 9.35385167749 61.7557190076 -15.1322289526 -0.567077 1.42597 4.89623 -0.554432 1.11192 4.97677 -0.447245 0.00278553 5.09917 -0.482605 0.807033 5.03506 -14.3992 11.5239 -12.665 -14.6755 29.5993 -8.23126 -0.0 0.0 -0.0 -4.23777 24.958 -2.74948 -15.8355 -7.10253 68.1457 1.21233 -30.9858 0.336058 -55.8917 -4.77671 4.95502 -1.71647 31.1848 3.06697 -0.0 0.0 -0.0 14.1762 21.3894 -28.9011 0.038388 41.6749 -56.5739 0.832083 22.4008 -0.164766 3.58384 -0.112413 0.443884 1.03772 -20.0616 -14.4002 0.0 0.0 0.0 25.3717 41.3109 -18.9546 -42.295 -0.619195 6.31654 8.69626 5.32087 -1.24289 7.0279 -0.0 -0.0 -0.0 0.0 -0.0 -4.44614 18.0032 9.39512 -12.5725 -0.310185 -1.90063 13.5354 17.3828 2.09553 20.4333 -0.0 -0.0 0.0 0.0 0.0 
3512.08746204 744.125 -1521.09935005 12.7520964072 65.7289601722 -18.6699469511 -0.774766 0.913406 5.13712 -0.760281 0.585117 5.18466 -0.696267 -0.581465 5.18507 -0.73368 0.243568 5.21181 -14.9787 12.0694 -12.1197 -15.4058 30.2219 -7.32872 -0.0 0.0 -0.0 -4.24062 25.1596 -2.70543 -16.758 -6.49015 68.3358 1.01916 -26.7868 0.242679 -55.4168 -4.7189 4.93579 -1.39751 28.7025 3.64191 -0.0 0.0 -0.0 13.7785 22.3073 -27.8803 1.22408 41.7732 -56.7409 0.941751 25.0094 -0.208867 4.84508 -0.145335 0.601629 0.594147 -17.2549 -10.6865 0.0 0.0 0.0 26.5755 38.7756 -17.4773 -43.365 -0.694608 6.46281 7.37451 8.00191 -1.05738 6.96407 -0.0 -0.0 -0.0 0.0 -0.0 -6.60849 17.9633 9.86818 -12.6438 -0.310748 -1.91157 13.0309 17.2781 2.02022 19.981 -0.0 -0.0 0.0 0.0 0.0 
3511.93322346 744.125 -1520.89128974 12.8463506201 65.915225626 -18.7732642211 -0.774766 0.913406 5.13712 -0.760281 0.585117 5.18466 -0.696267 -0.581465 5.18507 -0.73368 0.243568 5.21181 -14.9787 12.0694 -12.1197 -15.4058 30.2219 -7.32872 -0.0 0.0 -0.0 -4.24062 25.1596 -2.70543 -16.758 -6.49015 68.3358 1.01916 -26.7868 0.242679 -55.4168 -4.7189 4.93579 -1.39751 28.7025 3.64191 -0.0 0.0 -0.0 13.7785 22.3073 -27.8803 1.22408 41.7732 -56.7409 0.941751 25.0094 -0.208867 4.84508 -0.145335 0.601629 0.594147 -17.2549 -10.6865 0.0 0.0 0.0 26.5755 38.7756 -17.4773 -43.365 -0.694608 6.46281 7.37451 8.00191 -1.05738 6.96407 -0.0 -0.0 -0.0 0.0 -0.0 -6.60849 17.9633 9.86818 -12.6438 -0.310748 -1.91157 13.0309 17.2781 2.02022 19.981 -0.0 -0.0 0.0 0.0 0.0 
3503.27308729 744.47 -1521.97762281 14.3879477661 69.483602581 -20.4122262884 -0.660611 0.519879 5.26153 -0.645237 0.184499 5.28386 -0.61831 -0.988727 5.19406 -0.655902 -0.15721 5.28474 -15.3891 12.442 -11.7234 -15.9255 30.6374 -6.67889 -0.0 0.0 -0.0 -4.10781 24.9481 -2.57791 -16.9261 -6.14551 68.4584 0.90263 -24.0908 0.192612 -55.0837 -4.67844 4.92202 -1.18079 26.9588 4.06574 -0.0 0.0 -0.0 13.5369 23.0045 -27.2477 2.33666 41.9745 -56.9529 1.03237 27.0848 -0.248665 5.72845 -0.166321 0.71252 0.282177 -15.236 -7.99332 0.0 0.0 0.0 27.4768 37.0072 -16.6501 -44.0589 -0.744977 6.55692 6.43343 9.91916 -0.925615 6.91778 -0.0 -0.0 -0.0 0.0 -0.0 -7.939 18.1909 10.3537 -12.7183 -0.311321 -1.92299 12.681 17.2111 1.96792 19.6627 -0.0 -0.0 0.0 0.0 0.0 
3495.40948996 745.17 -1521.55933382 16.9480138961 72.1317610634 -22.5197463924 -0.628661 0.463045 5.24267 -0.613388 0.128973 5.26145 -0.591995 -1.03574 5.16038 -0.629074 -0.208932 5.25889 -14.5015 11.6769 -11.4354 -14.8586 29.1364 -6.95544 -0.0 0.0 -0.0 -4.03184 24.2185 -2.6445 -17.231 -5.99144 68.4287 0.781483 -21.1625 0.145988 -54.9968 -4.66791 4.91839 -0.269756 23.4442 7.79188 -0.0 0.0 -0.0 13.2758 23.5386 -26.5852 3.15167 42.1212 -57.0974 1.11423 28.896 -0.28709 6.72269 -0.187891 0.837692 -0.361215 -12.0749 -2.68958 0.0 0.0 0.0 24.9967 36.9418 -13.1951 -30.0091 0.0437169 4.5528 0.781189 12.2726 -0.114368 2.40623 -0.0 -0.0 -0.0 0.0 -0.0 -8.88667 18.1241 9.56809 -12.0805 -0.305935 -1.82528 12.9638 15.875 1.9884 18.7752 -0.0 -0.0 0.0 0.0 0.0 
3484.83672484 747.146 -1525.16950894 18.2859623759 74.0643389756 -23.5661985708 -0.683304 0.433895 5.22162 -0.668149 0.101216 5.23859 -0.649294 -1.06299 5.1309 -0.685932 -0.240484 5.23406 -13.9432 11.15 -11.245 -14.1981 28.0947 -7.11803 -0.0 0.0 -0.0 -4.15316 23.729 -2.924 -17.4691 -5.85723 68.3567 0.699302 -19.1068 0.117695 -54.9357 -4.6605 4.91582 0.335565 21.0284 10.4652 -0.0 0.0 -0.0 13.1162 23.913 -26.176 3.89971 42.254 -57.2421 1.18208 30.3507 -0.320628 7.40271 -0.201392 0.923509 -0.812616 -9.84675 1.13098 0.0 0.0 0.0 24.2085 36.647 -11.06 -19.7671 0.298337 3.00373 -3.18253 13.8673 0.471067 -0.75219 0.0 0.0 -0.0 0.0 -0.0 -10.046 18.1163 9.18792 -11.9627 -0.304821 -1.80723 13.1398 15.0106 2.00095 18.1492 -0.0 -0.0 0.0 0.0 0.0 
3476.54744569 744.44 -1524.06248435 18.8411232543 75.5967653039 -24.7400299415 -0.722297 0.548654 5.23846 -0.707064 0.214677 5.26267 -0.677182 -0.959803 5.17909 -0.714568 -0.131 5.26541 -13.8539 10.6663 -11.5792 -14.0419 27.3933 -7.63574 -0.0 0.0 -0.0 -3.97007 23.4375 -2.73865 -17.6526 -5.7512 68.3608 0.642133 -17.6456 0.0996704 -54.9028 -4.65652 4.91444 0.756514 19.1776 12.3701 -0.0 0.0 -0.0 13.0085 24.1785 -25.8987 4.7866 42.3991 -57.3057 1.25839 31.9367 -0.360099 7.77138 -0.208285 0.970099 -1.17415 -7.97741 4.2893 0.0 0.0 0.0 22.9205 36.831 -7.34754 -12.6189 0.310553 1.90776 -6.00565 14.7684 0.894999 -2.96404 0.0 0.0 -0.0 0.0 -0.0 -10.6568 18.0919 8.52013 -11.8834 -0.304051 -1.79509 13.2691 14.3612 2.01013 17.6338 -0.0 -0.0 0.0 0.0 0.0 
3476.46135692 744.44 -1523.89131758 18.967916021 75.6915217922 -24.8709094424 -0.722297 0.548654 5.23846 -0.707064 0.214677 5.26267 -0.677182 -0.959803 5.17909 -0.714568 -0.131 5.26541 -13.8539 10.6663 -11.5792 -14.0419 27.3933 -7.63574 -0.0 0.0 -0.0 -3.97007 23.4375 -2.73865 -17.6526 -5.7512 68.3608 0.642133 -17.6456 0.0996704 -54.9028 -4.65652 4.91444 0.756514 19.1776 12.3701 -0.0 0.0 -0.0 13.0085 24.1785 -25.8987 4.7866 42.3991 -57.3057 1.25839 31.9367 -0.360099 7.77138 -0.208285 0.970099 -1.17415 -7.97741 4.2893 0.0 0.0 0.0 22.9205 36.831 -7.34754 -12.6189 0.310553 1.90776 -6.00565 14.7684 0.894999 -2.96404 0.0 0.0 -0.0 0.0 -0.0 -10.6568 18.0919 8.52013 -11.8834 -0.304051 -1.79509 13.2691 14.3612 2.01013 17.6338 -0.0 -0.0 0.0 0.0 0.0 
